<?xml version="1.0" encoding="utf-8"?>
<!-- Generator: Adobe Illustrator 19.0.0, SVG Export Plug-In . SVG Version: 6.00 Build 0)  -->
<svg version="1.1" xmlns="http://www.w3.org/2000/svg" xmlns:xlink="http://www.w3.org/1999/xlink" x="0px" y="0px"
	 viewBox="0 0 538.6 538.6" style="enable-background:new 0 0 538.6 538.6;" xml:space="preserve">
<style type="text/css">
	.st0{fill:#1D1D18;}
	.st1{fill:#E94E1B;}
	.st2{fill:#B5CD29;}
	.st3{fill:#FDEB1B;}
	.st4{fill:#951B81;}
	.st5{fill:#36A9E1;}
	.st6{fill:#E6332A;}
</style>
<g id="Warstwa_1">
	<path id="XMLID_16_" class="st0" d="M269.3,0C418,0,538.6,120.6,538.6,269.3c0,148.7-120.6,269.3-269.3,269.3
		C120.6,538.6,0,418,0,269.3C0,120.6,120.6,0,269.3,0"/>
	<path id="XMLID_15_" class="st1" d="M50.2,226c-5.3,1.7-9.3,5-12,10c-2.6,5-3.1,10.2-1.5,15.5c1.7,5.3,4.9,9.3,9.8,11.9
		c4.9,2.6,10.1,3,15.6,1.3c5.3-1.7,9.3-4.9,11.9-9.8c2.6-4.9,3-10,1.4-15.3c-3-9.7-3.7-16.1-2.2-19c1.6-3,7.2-6,16.9-9
		c5.2-1.6,9.1-4.9,11.9-9.8c2.7-4.9,3.3-10.1,1.6-15.4c-1.7-5.3-5-9.3-10-12c-5-2.6-10.2-3.1-15.5-1.5c-5.3,1.7-9.3,4.9-11.9,9.8
		c-2.6,4.9-3,10.1-1.3,15.6c3,9.6,3.7,15.8,2.1,18.8C65.6,220,60,223,50.2,226"/>
	<path id="XMLID_14_" class="st2" d="M326.4,238.1c5.2-1.6,9.1-4.9,11.9-9.8c2.7-4.9,3.3-10.1,1.6-15.4c-1.7-5.3-5-9.3-10-12
		c-5-2.6-10.2-3.1-15.5-1.5c-5.3,1.7-9.3,4.9-11.9,9.8c-2.6,4.9-3,10.1-1.3,15.6c1.7,5.3,4.9,9.3,9.8,11.9
		C316,239.3,321.1,239.8,326.4,238.1"/>
	<path id="XMLID_1_" class="st3" d="M95.9,315.1c-5.3,1.7-9.3,5-12,10c-2.6,5-3.1,10.2-1.5,15.5c1.7,5.3,4.9,9.3,9.8,11.9
		c4.9,2.6,10.1,3,15.6,1.3c5.3-1.7,9.3-4.9,11.9-9.8c2.6-4.9,3-10,1.4-15.3c-3-9.7-3.7-16.1-2.2-19c1.6-3,7.2-6,16.9-9
		c5.2-1.6,9.1-4.9,11.9-9.8c2.7-4.9,3.3-10.1,1.6-15.4c-1.7-5.3-5-9.3-10-12c-5-2.6-10.2-3.1-15.5-1.5c-5.3,1.7-9.3,4.9-11.9,9.8
		c-2.6,4.9-3,10.1-1.3,15.6c3,9.6,3.7,15.8,2.1,18.8C111.3,309.1,105.6,312.1,95.9,315.1"/>
	<path id="XMLID_2_" class="st4" d="M300.5,127.5c-5.3,1.7-9.3,5-12,10c-2.6,5-3.1,10.2-1.5,15.5c1.7,5.3,4.9,9.3,9.8,11.9
		c4.9,2.6,10.1,3,15.6,1.3c5.3-1.7,9.3-4.9,11.9-9.8c2.6-4.9,3-10,1.4-15.3c-3-9.7-3.7-16.1-2.2-19c1.6-3,7.2-6,16.9-9
		c5.2-1.6,9.1-4.9,11.9-9.8c2.7-4.9,3.3-10.1,1.6-15.4c-1.7-5.3-5-9.3-10-12c-5-2.6-10.2-3.1-15.5-1.5c-5.3,1.7-9.3,4.9-11.9,9.8
		c-2.6,4.9-3,10.1-1.3,15.6c3,9.6,3.7,15.8,2.1,18.8C315.9,121.5,310.3,124.5,300.5,127.5"/>
	<path id="XMLID_3_" class="st3" d="M118.4,131.9c-5.3,1.7-9.3,5-12,10c-2.6,5-3.1,10.2-1.5,15.5c1.7,5.3,4.9,9.3,9.8,11.9
		c4.9,2.6,10.1,3,15.6,1.3c5.3-1.7,9.3-4.9,11.9-9.8c2.6-4.9,3-10,1.4-15.3c-3-9.7-3.7-16.1-2.2-19c1.6-3,7.2-6,16.9-9
		c5.2-1.6,9.1-4.9,11.9-9.8c2.7-4.9,3.3-10.1,1.6-15.4c-1.7-5.3-5-9.3-10-12c-5-2.6-10.2-3.1-15.5-1.5c-5.3,1.7-9.3,4.9-11.9,9.8
		c-2.6,4.9-3,10.1-1.3,15.6c3,9.6,3.7,15.8,2.1,18.8C133.7,125.9,128.1,128.9,118.4,131.9"/>
	<path id="XMLID_4_" class="st3" d="M240.6,238.8c-5.3,1.7-9.3,5-12,10c-2.6,5-3.1,10.2-1.5,15.5c1.7,5.3,4.9,9.3,9.8,11.9
		c4.9,2.6,10.1,3,15.6,1.3c5.3-1.7,9.3-4.9,11.9-9.8c2.6-4.9,3-10,1.4-15.3c-3-9.7-3.7-16.1-2.2-19c1.6-3,7.2-6,16.9-9
		c5.2-1.6,9.1-4.9,11.9-9.8c2.7-4.9,3.3-10.1,1.6-15.4c-1.7-5.3-5-9.3-10-12c-5-2.6-10.2-3.1-15.5-1.5c-5.3,1.7-9.3,4.9-11.9,9.8
		c-2.6,4.9-3,10.1-1.3,15.6c3,9.6,3.7,15.8,2.1,18.8C256,232.8,250.3,235.8,240.6,238.8"/>
	<path id="XMLID_5_" class="st3" d="M250,116.7c-5.3,1.7-9.3,5-12,10c-2.6,5-3.1,10.2-1.5,15.5c1.7,5.3,4.9,9.3,9.8,11.9
		c4.9,2.6,10.1,3,15.6,1.3c5.3-1.7,9.3-4.9,11.9-9.8c2.6-4.9,3-10,1.4-15.3c-3-9.7-3.7-16.1-2.2-19c1.6-3,7.2-6,16.9-9
		c5.2-1.6,9.1-4.9,11.9-9.8c2.7-4.9,3.3-10.1,1.6-15.4c-1.7-5.3-5-9.3-10-12c-5-2.6-10.2-3.1-15.5-1.5c-5.3,1.7-9.3,4.9-11.9,9.8
		c-2.6,4.9-3,10.1-1.3,15.6c3,9.6,3.7,15.8,2.1,18.8C265.3,110.7,259.7,113.7,250,116.7"/>
	<path id="XMLID_6_" class="st1" d="M166.9,380.5c-5.3,1.7-9.3,5-12,10c-2.6,5-3.1,10.2-1.5,15.5c1.7,5.3,4.9,9.3,9.8,11.9
		c4.9,2.6,10.1,3,15.6,1.3c5.3-1.7,9.3-4.9,11.9-9.8c2.6-4.9,3-10,1.4-15.3c-3-9.7-3.7-16.1-2.2-19c1.6-3,7.2-6,16.9-9
		c5.2-1.6,9.1-4.9,11.9-9.8c2.7-4.9,3.3-10.1,1.6-15.4c-1.7-5.3-5-9.3-10-12c-5-2.6-10.2-3.1-15.5-1.5c-5.3,1.7-9.3,4.9-11.9,9.8
		c-2.6,4.9-3,10.1-1.3,15.6c3,9.6,3.7,15.8,2.1,18.8C182.3,374.5,176.7,377.5,166.9,380.5"/>
	<path id="XMLID_7_" class="st3" d="M391.6,163.6c-5.3,1.7-9.3,5-12,10c-2.6,5-3.1,10.2-1.5,15.5c1.7,5.3,4.9,9.3,9.8,11.9
		c4.9,2.6,10.1,3,15.6,1.3c5.3-1.7,9.3-4.9,11.9-9.8c2.6-4.9,3-10,1.4-15.3c-3-9.7-3.7-16.1-2.2-19c1.6-3,7.2-6,16.9-9
		c5.2-1.6,9.1-4.9,11.9-9.8c2.7-4.9,3.3-10.1,1.6-15.4c-1.7-5.3-5-9.3-10-12c-5-2.6-10.2-3.1-15.5-1.5c-5.3,1.7-9.3,4.9-11.9,9.8
		c-2.6,4.9-3,10.1-1.3,15.6c3,9.6,3.7,15.8,2.1,18.8C407,157.6,401.4,160.6,391.6,163.6"/>
	<path id="XMLID_8_" class="st5" d="M152.8,174.4c-5.3,1.7-9.3,5-12,10c-2.6,5-3.1,10.2-1.5,15.5c1.7,5.3,4.9,9.3,9.8,11.9
		c4.9,2.6,10.1,3,15.6,1.3c5.3-1.7,9.3-4.9,11.9-9.8c2.6-4.9,3-10,1.4-15.3c-3-9.7-3.7-16.1-2.2-19c1.6-3,7.2-6,16.9-9
		c5.2-1.6,9.1-4.9,11.9-9.8c2.7-4.9,3.3-10.1,1.6-15.4c-1.7-5.3-5-9.3-10-12c-5-2.6-10.2-3.1-15.5-1.5c-5.3,1.7-9.3,4.9-11.9,9.8
		c-2.6,4.9-3,10.1-1.3,15.6c3,9.6,3.7,15.8,2.1,18.8C168.1,168.4,162.5,171.4,152.8,174.4"/>
	<path id="XMLID_9_" class="st4" d="M174.5,251.4c-5.3,1.7-9.3,5-12,10c-2.6,5-3.1,10.2-1.5,15.5c1.7,5.3,4.9,9.3,9.8,11.9
		c4.9,2.6,10.1,3,15.6,1.3c5.3-1.7,9.3-4.9,11.9-9.8c2.6-4.9,3-10,1.4-15.3c-3-9.7-3.7-16.1-2.2-19c1.6-3,7.2-6,16.9-9
		c5.2-1.6,9.1-4.9,11.9-9.8c2.7-4.9,3.3-10.1,1.6-15.4c-1.7-5.3-5-9.3-10-12c-5-2.6-10.2-3.1-15.5-1.5c-5.3,1.7-9.3,4.9-11.9,9.8
		c-2.6,4.9-3,10.1-1.3,15.6c3,9.6,3.7,15.8,2.1,18.8C189.8,245.4,184.2,248.3,174.5,251.4"/>
	<path id="XMLID_10_" class="st6" d="M357.3,186.1c5.2-1.6,9.1-4.9,11.9-9.8c2.7-4.9,3.3-10.1,1.6-15.4c-1.7-5.3-5-9.3-10-12
		c-5-2.6-10.2-3.1-15.5-1.5c-5.3,1.7-9.3,4.9-11.9,9.8c-2.6,4.9-3,10.1-1.3,15.6c1.7,5.3,4.9,9.3,9.8,11.9
		C346.8,187.3,351.9,187.7,357.3,186.1"/>
	<path id="XMLID_12_" class="st2" d="M383.1,139.6c5.2-1.6,9.1-4.9,11.9-9.8c2.7-4.9,3.3-10.1,1.6-15.4c-1.7-5.3-5-9.3-10-12
		c-5-2.6-10.2-3.1-15.5-1.5c-5.3,1.7-9.3,4.9-11.9,9.8c-2.6,4.9-3,10.1-1.3,15.6c1.7,5.3,4.9,9.3,9.8,11.9
		C372.7,140.8,377.8,141.3,383.1,139.6"/>
	<path id="XMLID_13_" class="st2" d="M88,307.3c5.2-1.6,9.1-4.9,11.9-9.8c2.7-4.9,3.3-10.1,1.6-15.4c-1.7-5.3-5-9.3-10-12
		c-5-2.6-10.2-3.1-15.5-1.5c-5.3,1.7-9.3,4.9-11.9,9.8c-2.6,4.9-3,10.1-1.3,15.6c1.7,5.3,4.9,9.3,9.8,11.9
		C77.5,308.4,82.6,308.9,88,307.3"/>
	<path id="XMLID_17_" class="st2" d="M170.8,335.2c5.2-1.6,9.1-4.9,11.9-9.8c2.7-4.9,3.3-10.1,1.6-15.4c-1.7-5.3-5-9.3-10-12
		c-5-2.6-10.2-3.1-15.5-1.5c-5.3,1.7-9.3,4.9-11.9,9.8c-2.6,4.9-3,10.1-1.3,15.6c1.7,5.3,4.9,9.3,9.8,11.9
		C160.3,336.4,165.4,336.9,170.8,335.2"/>
	<path id="XMLID_18_" class="st2" d="M130.1,250.9c5.2-1.6,9.1-4.9,11.9-9.8c2.7-4.9,3.3-10.1,1.6-15.4c-1.7-5.3-5-9.3-10-12
		c-5-2.6-10.2-3.1-15.5-1.5c-5.3,1.7-9.3,4.9-11.9,9.8c-2.6,4.9-3,10.1-1.3,15.6c1.7,5.3,4.9,9.3,9.8,11.9
		C119.6,252.1,124.8,252.6,130.1,250.9"/>
	<path id="XMLID_19_" class="st2" d="M322.9,345.7c5.2-1.6,9.1-4.9,11.9-9.8c2.7-4.9,3.3-10.1,1.6-15.4c-1.7-5.3-5-9.3-10-12
		c-5-2.6-10.2-3.1-15.5-1.5c-5.3,1.7-9.3,4.9-11.9,9.8c-2.6,4.9-3,10.1-1.3,15.6c1.7,5.3,4.9,9.3,9.8,11.9
		C312.4,346.9,317.5,347.4,322.9,345.7"/>
	<path id="XMLID_20_" class="st1" d="M238.1,197.1c5.2-1.6,9.1-4.9,11.9-9.8c2.7-4.9,3.3-10.1,1.6-15.4c-1.7-5.3-5-9.3-10-12
		c-5-2.6-10.2-3.1-15.5-1.5c-5.3,1.7-9.3,4.9-11.9,9.8c-2.6,4.9-3,10.1-1.3,15.6c1.7,5.3,4.9,9.3,9.8,11.9
		C227.6,198.3,232.7,198.7,238.1,197.1"/>
	<path id="XMLID_21_" class="st5" d="M141.7,385.2c5.2-1.6,9.1-4.9,11.9-9.8c2.7-4.9,3.3-10.1,1.6-15.4c-1.7-5.3-5-9.3-10-12
		c-5-2.6-10.2-3.1-15.5-1.5c-5.3,1.7-9.3,4.9-11.9,9.8c-2.6,4.9-3,10.1-1.3,15.6c1.7,5.3,4.9,9.3,9.8,11.9
		C131.2,386.4,136.3,386.8,141.7,385.2"/>
	<path id="XMLID_22_" class="st2" d="M263.8,382.2c5.2-1.6,9.1-4.9,11.9-9.8c2.7-4.9,3.3-10.1,1.6-15.4c-1.7-5.3-5-9.3-10-12
		c-5-2.6-10.2-3.1-15.5-1.5c-5.3,1.7-9.3,4.9-11.9,9.8c-2.6,4.9-3,10.1-1.3,15.6c1.7,5.3,4.9,9.3,9.8,11.9
		C253.4,383.4,258.5,383.8,263.8,382.2"/>
	<path id="XMLID_23_" class="st2" d="M425.5,248.2c5.2-1.6,9.1-4.9,11.9-9.8c2.7-4.9,3.3-10.1,1.6-15.4c-1.7-5.3-5-9.3-10-12
		c-5-2.6-10.2-3.1-15.5-1.5c-5.3,1.7-9.3,4.9-11.9,9.8c-2.6,4.9-3,10.1-1.3,15.6c1.7,5.3,4.9,9.3,9.8,11.9
		C415.1,249.4,420.2,249.9,425.5,248.2"/>
	<path id="XMLID_24_" class="st5" d="M266.1,298.2c-5.3,1.7-9.3,5-12,10c-2.6,5-3.1,10.2-1.5,15.5c1.7,5.3,4.9,9.3,9.8,11.9
		c4.9,2.6,10.1,3,15.6,1.3c5.3-1.7,9.3-4.9,11.9-9.8c2.6-4.9,3-10,1.4-15.3c-3-9.7-3.7-16.1-2.2-19c1.6-3,7.2-6,16.9-9
		c5.2-1.6,9.1-4.9,11.9-9.8c2.7-4.9,3.3-10.1,1.6-15.4c-1.7-5.3-5-9.3-10-12c-5-2.6-10.2-3.1-15.5-1.5c-5.3,1.7-9.3,4.9-11.9,9.8
		c-2.6,4.9-3,10.1-1.3,15.6c3,9.6,3.7,15.8,2.1,18.8C281.5,292.2,275.9,295.2,266.1,298.2"/>
	<path id="XMLID_26_" class="st3" d="M198.6,444.4c-5.3,1.7-9.3,5-12,10c-2.6,5-3.1,10.2-1.5,15.5c1.7,5.3,4.9,9.3,9.8,11.9
		c4.9,2.6,10.1,3,15.6,1.3c5.3-1.7,9.3-4.9,11.9-9.8c2.6-4.9,3-10,1.4-15.3c-3-9.7-3.7-16.1-2.2-19c1.6-3,7.2-6,16.9-9
		c5.2-1.6,9.1-4.9,11.9-9.8c2.7-4.9,3.3-10.1,1.6-15.4c-1.7-5.3-5-9.3-10-12c-5-2.6-10.2-3.1-15.5-1.5c-5.3,1.7-9.3,4.9-11.9,9.8
		c-2.6,4.9-3,10.1-1.3,15.6c3,9.6,3.7,15.8,2.1,18.8C214,438.4,208.3,441.3,198.6,444.4"/>
	<path id="XMLID_27_" class="st4" d="M338.4,256.4c-5.3,1.7-9.3,5-12,10c-2.6,5-3.1,10.2-1.5,15.5c1.7,5.3,4.9,9.3,9.8,11.9
		c4.9,2.6,10.1,3,15.6,1.3c5.3-1.7,9.3-4.9,11.9-9.8c2.6-4.9,3-10,1.4-15.3c-3-9.7-3.7-16.1-2.2-19c1.6-3,7.2-6,16.9-9
		c5.2-1.6,9.1-4.9,11.9-9.8c2.7-4.9,3.3-10.1,1.6-15.4c-1.7-5.3-5-9.3-10-12c-5-2.6-10.2-3.1-15.5-1.5c-5.3,1.7-9.3,4.9-11.9,9.8
		c-2.6,4.9-3,10.1-1.3,15.6c3,9.6,3.7,15.8,2.1,18.8C353.8,250.4,348.1,253.4,338.4,256.4"/>
	<path id="XMLID_30_" class="st5" d="M365.8,303.3c-5.3,1.7-9.3,5-12,10c-2.6,5-3.1,10.2-1.5,15.5c1.7,5.3,4.9,9.3,9.8,11.9
		c4.9,2.6,10.1,3,15.6,1.3c5.3-1.7,9.3-4.9,11.9-9.8c2.6-4.9,3-10,1.4-15.3c-3-9.7-3.7-16.1-2.2-19c1.6-3,7.2-6,16.9-9
		c5.2-1.6,9.1-4.9,11.9-9.8c2.7-4.9,3.3-10.1,1.6-15.4c-1.7-5.3-5-9.3-10-12c-5-2.6-10.2-3.1-15.5-1.5c-5.3,1.7-9.3,4.9-11.9,9.8
		c-2.6,4.9-3,10.1-1.3,15.6c3,9.6,3.7,15.8,2.1,18.8C381.2,297.3,375.5,300.3,365.8,303.3"/>
	<path id="XMLID_31_" class="st2" d="M229.3,327.2c5.2-1.6,9.1-4.9,11.9-9.8c2.7-4.9,3.3-10.1,1.6-15.4c-1.7-5.3-5-9.3-10-12
		c-5-2.6-10.2-3.1-15.5-1.5c-5.3,1.7-9.3,4.9-11.9,9.8c-2.6,4.9-3,10.1-1.3,15.6c1.7,5.3,4.9,9.3,9.8,11.9
		C218.8,328.4,223.9,328.9,229.3,327.2"/>
	<path id="XMLID_32_" class="st1" d="M440,268.2c-5.3,1.7-9.3,5-12,10c-2.6,5-3.1,10.2-1.5,15.5c1.7,5.3,4.9,9.3,9.8,11.9
		c4.9,2.6,10.1,3,15.6,1.3c5.3-1.7,9.3-4.9,11.9-9.8c2.6-4.9,3-10,1.4-15.3c-3-9.7-3.7-16.1-2.2-19c1.6-3,7.2-6,16.9-9
		c5.2-1.6,9.1-4.9,11.9-9.8c2.7-4.9,3.3-10.1,1.6-15.4c-1.7-5.3-5-9.3-10-12c-5-2.6-10.2-3.1-15.5-1.5c-5.3,1.7-9.3,4.9-11.9,9.8
		c-2.6,4.9-3,10.1-1.3,15.6c3,9.6,3.7,15.8,2.1,18.8C455.4,262.2,449.8,265.2,440,268.2"/>
	<path id="XMLID_33_" class="st5" d="M459.9,200.4c5.2-1.6,9.1-4.9,11.9-9.8c2.7-4.9,3.3-10.1,1.6-15.4c-1.7-5.3-5-9.3-10-12
		c-5-2.6-10.2-3.1-15.5-1.5c-5.3,1.7-9.3,4.9-11.9,9.8c-2.6,4.9-3,10.1-1.3,15.6c1.7,5.3,4.9,9.3,9.8,11.9
		C449.5,201.6,454.6,202.1,459.9,200.4"/>
	<path id="XMLID_34_" class="st2" d="M224.5,113c5.2-1.6,9.1-4.9,11.9-9.8c2.7-4.9,3.3-10.1,1.6-15.4c-1.7-5.3-5-9.3-10-12
		c-5-2.6-10.2-3.1-15.5-1.5c-5.3,1.7-9.3,4.9-11.9,9.8c-2.6,4.9-3,10.1-1.3,15.6c1.7,5.3,4.9,9.3,9.8,11.9
		C214,114.2,219.1,114.7,224.5,113"/>
</g>
<g id="Warstwa_2">
</g>
</svg>
